<?xml version="1.0" encoding="UTF-8" standalone="no"?>
<!DOCTYPE svg PUBLIC "-//W3C//DTD SVG 1.1//EN" "http://www.w3.org/Graphics/SVG/1.1/DTD/svg11.dtd">
<svg width="100%" height="100%" viewBox="0 0 151 151" version="1.1" xmlns="http://www.w3.org/2000/svg" xmlns:xlink="http://www.w3.org/1999/xlink" xml:space="preserve" xmlns:serif="http://www.serif.com/" style="fill-rule:evenodd;clip-rule:evenodd;stroke-linejoin:round;stroke-miterlimit:2;">
    <g transform="matrix(1,0,0,1,-236,-177)">
        <g transform="matrix(4.16667,0,0,4.16667,-2919.63,-486.938)">
            <g>
                <path d="M784.287,195.41L766.48,195.41C761.438,195.41 757.351,191.323 757.351,186.281L757.351,168.473C757.351,163.432 761.438,159.345 766.48,159.345L784.287,159.345C789.329,159.345 793.416,163.432 793.416,168.473L793.416,186.281C793.416,191.323 789.329,195.41 784.287,195.41Z" style="fill-rule:nonzero;"/>
                <path d="M785.226,171.397C784.608,171.676 783.926,171.845 783.261,171.957C783.576,171.904 784.04,171.332 784.227,171.101C784.511,170.747 784.746,170.346 784.879,169.912C784.896,169.877 784.908,169.835 784.874,169.809C784.832,169.792 784.804,169.801 784.771,169.818C784.027,170.216 783.259,170.505 782.44,170.709C782.373,170.726 782.322,170.709 782.28,170.666C782.212,170.59 782.148,170.518 782.076,170.458C781.732,170.166 781.364,169.936 780.948,169.767C780.402,169.544 779.806,169.45 779.218,169.488C778.646,169.525 778.083,169.687 777.575,169.952C777.066,170.218 776.612,170.588 776.251,171.034C775.877,171.496 775.601,172.04 775.46,172.618C775.323,173.176 775.335,173.727 775.418,174.291C775.431,174.385 775.422,174.397 775.338,174.385C772.138,173.908 769.486,172.764 767.333,170.31C767.239,170.204 767.19,170.204 767.112,170.318C766.17,171.73 766.627,173.999 767.805,175.114C767.961,175.263 768.122,175.412 768.296,175.547C768.232,175.56 767.449,175.475 766.752,175.114C766.658,175.055 766.611,175.089 766.603,175.195C766.595,175.348 766.607,175.488 766.628,175.654C766.81,177.085 767.801,178.409 769.158,178.926C769.319,178.994 769.497,179.053 769.671,179.082C769.362,179.15 769.043,179.199 768.156,179.129C768.046,179.108 768.004,179.164 768.046,179.269C768.713,181.086 770.151,181.627 771.229,181.935C771.373,181.96 771.518,181.96 771.662,181.994C771.653,182.007 771.645,182.007 771.637,182.019C771.279,182.564 770.04,182.97 769.463,183.171C768.413,183.539 767.271,183.704 766.161,183.594C765.984,183.568 765.946,183.57 765.898,183.594C765.85,183.624 765.893,183.666 765.949,183.712C766.175,183.861 766.403,183.993 766.637,184.12C767.342,184.494 768.076,184.791 768.844,185.003C772.81,186.098 777.277,185.293 780.255,182.335C782.593,180.012 783.413,176.807 783.413,173.599C783.413,173.474 783.562,173.404 783.649,173.338C784.258,172.881 784.748,172.334 785.202,171.723C785.305,171.586 785.305,171.464 785.305,171.413L785.305,171.397C785.305,171.346 785.305,171.361 785.226,171.397Z" style="fill:white;fill-rule:nonzero;"/>
            </g>
        </g>
    </g>
</svg>
